<svg id="Layer_1" data-name="Layer 1" xmlns="http://www.w3.org/2000/svg" viewBox="0 0 388.98 420"><defs><style>.cls-1{fill:#1abc9c;}.cls-2{fill:#16a085;}</style></defs><title>science</title><path class="cls-1" d="M368.41,345.19a60,60,0,0,0-9.71-10.9l-78.43-78.43a102,102,0,0,1-10-27.43c-1.44-7-1.6-11.69-1.62-29.19V94.65H272A24.24,24.24,0,0,0,296.25,70.4v-.16A24.24,24.24,0,0,0,272,46H181.84A24.24,24.24,0,0,0,157.6,70.24v.16a24.24,24.24,0,0,0,24.24,24.24h1.7V223.72c-.21,1.57-.48,3.08-.81,4.71a102,102,0,0,1-10,27.43L94.34,334.29a60,60,0,0,0-9.71,10.9c-5.42,7.49-24.8,34.26-19.46,68.11,1.28,8.12,4.83,30.64,24.32,43.78A54.45,54.45,0,0,0,117.87,466h217.3a54.45,54.45,0,0,0,28.38-8.92c19.49-13.14,23-35.67,24.32-43.78C393.21,379.45,373.83,352.68,368.41,345.19Z" transform="translate(-64.24 -46)"/><path class="cls-2" d="M430.59,114.11H346.44a22.63,22.63,0,0,0-22.63,22.63v.15a22.63,22.63,0,0,0,22.63,22.63h2.34V426.27A39.73,39.73,0,0,0,388.52,466h0a39.73,39.73,0,0,0,39.73-39.73V159.51h2.34a22.63,22.63,0,0,0,22.63-22.63v-.15A22.63,22.63,0,0,0,430.59,114.11Z" transform="translate(-64.24 -46)"/></svg>